<svg xmlns="http://www.w3.org/2000/svg">
  <symbol viewBox="0 0 600 600" id="White">
    <circle cx="-475" cy="50" r="50" fill="#f8f6d8" transform="matrix(6 0 0 6 3150 0)"/><path d="M586 342.4C547 320.2 521.6 309 510.5 309c-8 0-14.3 6.3-19 18.6-4.4 12.4-13.5 18.6-27 18.6-5.7 0-17-2-34.2-6-9.6 14.6-14.4 24-14.4 28 0 5.5 4.2 12 12.4 19.6 8.3 7.6 15.2 11.4 21 11.4 3.5 0 8.4-.8 14.6-2.3 6.2-1.6 10.3-2.4 12.4-2.4 6.2 0 9.3 11.4 9.3 34 0 21.8-5 55-15.2 100-13-51.5-27-77.2-41.6-77.2-2 0-6.2 1.5-12.5 4.6-6.3 3-11 4.5-14 4.5-14.6 0-27.8-13.4-39.4-40.2C339.6 424 328 435.8 328 456c0 10 4.7 18 14 24.2 9.3 6 14 10.3 14 12.8 0 13.7-20 34.6-59.8 63-21.2 15-35.8 25.6-44 31.7 7.2-9 14.2-21 21.3-35.6 8-16.6 12-29.4 12-38.5 0-5-5.7-12.2-17.3-21.2-11.6-9-17.4-18.7-17.4-28.8 0-8.6 3-19 9-31.8-6.5-7.6-14.3-11.4-23.4-11.4-20.2 0-30.3 6.6-30.3 19.7v20.5c.6 16.6-12 25-37.7 25-19.7 0-52.8-4.6-99.2-13.7 52.6-13 78.8-28.2 78.8-45.4 0 2-1-4-3-18.2-2-15.6 9-29.7 33.3-42.3-4.4-23.3-16.5-35-36.2-35-3 0-8.6 5.3-16.7 16-8 10.5-15.5 15.8-22.6 15.8-12 0-27.7-13-47-39.4-9-13-23-32.5-41.5-58.3 11.5 6.2 23 12.3 34.7 18.3 15 7 27.2 10.6 36.3 10.6 7 0 14-6.3 20.8-18.6 7-12.4 15.8-18.6 27-18.6 1.4 0 11.5 3 30.2 9 9.6-14.5 14.4-25.4 14.4-32.4 0-6-3.7-13-11-21-7.3-7.7-14-11.6-20-11.6-2.6 0-6.5.8-11.8 2.3-5.3 1.6-9.2 2.4-11.7 2.4-9.2 0-13.8-11.4-13.8-34 0-6.2 6-40.7 17.5-103.8-.5 7.5 2.7 21.7 9.8 42.4 8.6 25.2 18.7 37.8 30.3 37.8 2 0 6-1.5 12-4.5 6.2-3 11-4.6 14.5-4.6 11.6 0 21.2 6.6 28.7 19.7l11.4 20.4c10.6 0 19.4-3.7 26.5-11.3 7-7.6 10.5-16.7 10.5-27.3 0-11-4.7-19.5-14-25.3-9.4-6-14-10.3-14-13.4 0-10.6 16.6-28.5 50-53.7 26.7-20.3 44-32.2 52.2-35.7C323 41.6 312 63 312 76.7c0 7 4.4 14.6 13 22.7 10.6 9.5 16.7 16.4 18.2 20.4 5 11.6 4.5 27.5-1.5 47.7 13.6 9.6 24 14.4 31 14.4 14.6 0 22-7.7 22-22.8 0-1.6-.7-6.4-2-14.4-1.2-8-1.6-12.6-1-13.6 2-7 15.8-10.7 41.5-10.7 16.2 0 49.7 4.6 100.7 13.7l-50 13.6c-20.2 6-30.3 13-30.3 20.4 0 3.6 1.2 9.6 3.8 18.2 2.5 8.6 3.8 15 3.8 19 0 7-4.6 13.6-13.7 19.6L422 243.2c6 11 10 17.7 12 19.7 5 6 12 9 20.5 9 6 0 11.6-5.4 16.6-16 5-10.6 13.2-15.8 24.3-15.8 13.6 0 29 12.6 46.2 37.8 9.6 14.2 24.5 35.6 44.6 64.4zm-168-44c0-32.2-11.8-60.2-35.5-84-23.7-23.7-51.7-35.5-84-35.5-32.8 0-61 11.6-84.8 35-23.7 23.5-35.8 51.7-36.3 84.5-.5 32.3 11.4 60.2 36 83.6 24.4 23.6 52.8 35.3 85 35.3 34.4 0 63-11.2 86-33.7 23-22.4 34.2-50.8 33.7-85zm-11.3 0c0 31-10.3 56.4-31 76.5-20.7 20-46.4 30.2-77.2 30.2-29.8 0-55.3-10.3-76.5-31-21-20.7-31.8-46-31.8-75.7 0-29.3 10.8-54.4 32.2-75.3 21.5-21 46.8-31.5 76-31.5 29.4 0 54.7 10.6 76.2 31.8 21.4 21.2 32 46.2 32 75z" fill="#0d0f0f"/>
  </symbol>
  <symbol viewBox="0 0 600 600" id="Blue">
    <circle cx="-370" cy="50" r="50" fill="#c1d7e9" transform="matrix(6 0 0 6 2520 0)"/><path d="M405 502.3c-28.8 29.2-64.2 44-106.2 44-47.2 0-84.6-16.3-112.3-48.6-26-30.7-39.2-70-39.2-117.6 0-51.2 22.3-109.6 67-175.3 36.3-53.8 79-101 128.3-141.4-7.2 32.8-10.7 56-10.7 70 0 31.7 10 62.7 29.8 93 24.7 36 43.4 62.5 56.2 80 20 30.2 30 59.7 30 88.4 0 42.5-14.4 78.4-43 107.6zM404 338c-7.7-17-16.7-28.4-27-34 1.6 3 2.3 7.4 2.3 13 0 10.8-3 26-9.2 46l-10 31c0 17.8 9 26.8 27 26.8 19 0 28.4-12.6 28.4-37.7 0-12.7-4-27.7-11.5-45z" fill="#0d0f0f"/>
  </symbol>
  <symbol viewBox="0 0 600 600" id="Black">
    <circle cx="-265" cy="50" r="50" fill="#bab1ab" transform="matrix(6 0 0 6 1890 .012)"/><path d="M544.2 291.7c0 33-12 55.7-36 67.7-7.2 3.6-29.2 8.3-66.4 14.3-24 4-36 13.3-36 28v60.8c0 2.6.7 10.3 2.2 23.4l2.2 24c0 7.5-1.7 19.8-5.2 36.8l-33 6.8c-4.2-15-6.2-25.3-6.2-31 0-2.4.7-6 2-11.2 1-5 1.8-8.7 1.8-11.3 0-3.3-3-13-9.4-29.2h-11.6c-1.6 2.5-2 5.8-1.6 9.8 2 8.5 2.8 15.8 2.3 21.8-8.6 6-20.3 14-35.4 24-3.6-1-4.8-1.4-4-1.4v-53.4c-.8-2.5-3.4-3.5-7.4-3h-9l-9 70.7c-7 .5-15.6.5-25.6 0-3.5-16.6-9.8-41-18.8-73.7h-6l-9 28.6c0 2 .5 6 1.8 11.6 1.2 5.8 2 9.7 2 11.7 0 1.5-.6 5.2-1.6 11.3l-2.3 18c-1 1-2.2 1.5-3.7 1.5-15 0-25-3.7-30-11.3-5-7.5-7-18-6-31.6l6-90.3c0-1.4.4-3.4 1.5-6 1-2.4 1.5-4.2 1.5-5 0-4.2-4.3-12.2-12.8-24.2-1.5-.5-9.3-2.3-23.4-5.3-8.4-2-25.2-5.5-50.3-10.5-34.6-6.5-52-34.4-52-83.6 0-73.2 30.2-134 90.4-182.8 2.6 13.5 7 31.6 13 54.2l29.2 6.7 46 16.6c-14-8.4-32.4-22.2-55-41.3-8.5-10-12.8-26.8-12.8-50.4 0-5.5 9.6-12 28.6-19.6 17-7 30-11 38.4-12 27-3.5 48-5.3 62.5-5.3 62.5 0 113.2 16 151.8 48.2-12.5 14.5-34 30-64.7 46.6 12.2.5 29.7-4.2 52.8-14.3 23-10 32.8-15 29.3-15 4.2 0 12.2 8 24.2 24 9 12 16.3 22.8 22 32.3 16 28.6 26.7 59.5 32.2 92.6 0 11.4.3 19.7.8 24.7v6zM256 305.3c0-21.6-9.4-42-28.2-61.4-19-19.4-39-29-60.6-29-19 0-36 8-50.4 24.2-14.6 16.2-21.8 34-21.8 53.8 0 17 8.2 28.3 24.8 33.3 10.5 3 25.3 4.8 44.4 5.3h41.4c33.6.5 50.4-8.3 50.4-26.3zm82 93.3v-23.3c-3.5-6.6-7-13.3-10.5-20.4-3-10-8.6-24-16.6-42.2l-8.4 88c0 7-1.5 10.6-4.5 10.6-2 0-3.4-.5-4.4-1.5-3.5-53.3-5.3-76.4-5.3-69.4v-26.3c-1-1.5-2.2-2.3-3.7-2.3-17 17.6-25.6 46-25.6 85 0 21.6 2 35 6 40 4-1 8.5-2.8 13.6-5.3 2-1 7.7-1.5 17.3-1.5 9.4 0 21 3 34.5 9 5 0 7.5-13.5 7.5-40.6zm170-105c0-20-7.5-38-22.5-54s-32.4-24-52-24c-21 0-40.7 9.8-59 29-18.3 19.4-27.5 39.6-27.5 60.7 0 17.5 8.5 26.3 25.6 26.3H459c32.7-.5 49-13 49-38z" fill="#0d0f0f"/>
  </symbol>
  <symbol viewBox="0 0 600 600" id="Red">
    <circle cx="-160" cy="50" r="50" fill="#e49977" transform="matrix(6 0 0 6 1260 0)"/><path d="M551.8 399.7c-22.4 53.5-67 80.2-133.7 80.2-12 0-25.3 1.4-39.6 4.5-21.4 4.6-32 11-32 19 0 2.6 1.7 5.6 5.3 9 3.5 3.2 6.6 4.8 9 4.8-12.6 0-4 .4 26 1.2 30.2.7 49 1 56.6 1-44.3 26-118.4 38-222.2 36-34-.5-63.3-15.5-87.8-45-24-28-36-59.4-36-94 0-36.7 12.5-68 37.2-93.6 24.7-25.8 55.4-38.6 92-38.6 8.2 0 19 1.7 32.5 5.3 13.4 3.6 22.4 5.4 27 5.4 18.8 0 42.3-7.7 70.3-23.2 28-15.6 41.2-23.3 39.7-23.3-5 53.4-23 89.3-53.5 107.6-22 13-32.8 25.4-32.8 37.6 0 7.6 4.6 13.7 13.7 18.3 7 3.5 15 5.3 23.7 5.3 13.3 0 26.3-8.2 39-24.5 12.8-16.3 18.4-31 17-44.3-1.7-15.3-.6-33.6 3-55 1-6 4.6-13.6 11-22.5 6.3-9 12-14.4 17.2-16.4 0 4.6-1.7 12.2-5 23-3.3 10.6-5 18.5-5 23.6 0 11.2 3 19.8 9.2 26 9.2-3.6 17.3-15 24.5-34.4 6-14.8 9.5-29 10.5-42.8-21.4-1-42-10.7-61.4-29-19.6-18.4-29.3-38.2-29.3-59.6 0-3.6.4-7 1.5-10.7L393 172c8.6 12.8 15.2 19.2 19.8 19.2 6 0 9.2-6.4 9.2-19 0-16.4-4.4-31.2-13-44.4-9.7-15.8-22.2-23.7-37.5-23.7-7 0-17.8 4-32 11.6-14.3 7.6-27.3 11.4-39 11.4-3.6 0-19.4-4.6-47.3-13.7 49.3-8.2 74-15.6 74-22.2 0-17.2-33.8-29-101.5-35L189 53c2-2.6 16.5-5.4 43.5-8.5 23-2.5 39-3.8 48.2-3.8 121 0 198 58.8 230.6 176.5 5.6-4.7 8.4-12.4 8.4-23.3 0-14-4-31.6-12.2-52.7-3-8.3-8-20.7-14.5-37.2 41.7 53.3 62.6 103.7 62.6 151.3 0 25-6 47.8-17.6 68.3-7.6 13.8-22 31.4-42.7 53-21 21.4-35.2 38-42.8 49.8 28-7.6 46.3-13.5 55-17.5 19.3-8.8 37-21.8 52.7-39 0 6.5-2.8 16.5-8.4 29.7zm-333-300c0 9-5 15-15.3 17.4l-20 3.2c-7 3.5-17.4 17.5-31.2 42-1.5-7.7-3.8-18.3-6.8-32-4.6.4-12.3 4.5-23 12-4.5 3.7-12 9-22 16 3-18.2 13-36.7 30.5-55.6 18.3-21 36-31.3 53.4-31.3 23 0 34.4 9.4 34.4 28.3zm133 70c0 8.8-4.8 16-14.3 22-9.4 5.7-18.7 8.7-27.8 8.7-12.2 0-23.2-7-33-20.7C265.2 163 253.3 152 241 147c2.5-2.7 5.5-4 9-4 4.7 0 12.4 3.6 23.4 10.8 11 7 18 10.7 21 10.7 2.5 0 6.7-3.6 12.6-10.7 6-7.2 12.3-10.7 19.5-10.7 16.8 0 25.2 9 25.2 26.8z" fill="#0d0f0f"/>
  </symbol>
  <symbol viewBox="0 0 600 600" id="Green">
    <path d="M600 300c0 165.7-134.3 300-300 300S0 465.7 0 300 134.3 0 300 0s300 134.3 300 300z" fill="#a3c095"/><path d="M562.6 337.3c0 10-4 19-11.6 27-7.8 8-16.7 12-26.7 12-16 0-27.7-7.5-35.2-22.5l-35-1.5c-7.6 0-22.4 3.3-44.3 9.8-23.5 6.6-37 11.8-40.5 15.8-5.5 6-10 20-13.5 42-3 18-4.5 31.2-4.5 39.7 0 13.5 2 23.4 6.4 29.6 4.2 6.4 13 11.6 26.2 16 13.2 4 21.4 6.5 24.4 7 2 0 5.2-.3 9.7-.8h9c6.4 0 13 1 20.2 3 10 3 14.2 7 12.7 12-7-1-19.3.5-36.8 4.5l21 10.5c0 6-8.5 9-25.5 9-4.5 0-10.6-1-18.4-3-7.7-2-13-3-15.4-3H375c-.5 5-2 12.5-4.5 22.5-8.5-.5-18.5-5.5-30-15S322 537.5 319 537.5s-7.3 4.7-12.8 14.2c-5.5 9.5-8.2 16-8.2 19.5-6.5-3.5-12-10-16.5-19.5-2-6.5-4.2-13-6.7-19.5-5 .5-14.3 11-27.8 31.5h-3.7c-1-1.5-4.8-12-11.3-31.5-15.4-5-30-7.5-43.4-7.5-6.5 0-16.5 1.5-30 4.5l-21-1.5c3-3 11.7-8.7 26.2-17.2 17-10 30-15 39-15 1.5 0 3.5.3 6 .8s4.5.7 6 .7c3.5 0 9-2 17-5.6 7.6-3.8 12-7 13.3-10 1.4-3.2 2-11 2-23.4 0-28.5-7.5-49.7-22.5-63.7-13-12.5-34.4-21.5-64.4-27-8 28.5-30.4 42.8-67.4 42.8-12 0-24-7.2-36-21.7s-18-27.7-18-39.7C38.7 330 46.5 315 62 303 49.3 290 43 276.6 43 263c0-12.5 3.8-23.5 11.6-33 7.7-9.5 18-15 30.3-16.5-.8-16 4.4-27 16-33-5.6-5.5-8.4-15.2-8.4-29.2 0-16.5 5.5-30.2 16.5-41.2 11-11 25-16.5 41.3-16.5 18 0 32.8 6.2 44.3 18.7C209 63 240.3 38.3 288.3 38.3c25 0 47 10 66 30 7 7.5 10.4 11.5 10.4 12-6 0-3-1.2 9-3.4 12-2.3 20.7-3.5 26.2-3.5 19.4 0 36.7 7.3 51.7 21.8 13 13 22 29.4 27 49.4 3.4.5 9 2 16.4 4.5 11 5.5 16.6 15 16.6 28.5 0 2.5-2 7.3-6 14.2 32 18 48 43 48 75 0 9-3.5 21.4-10.5 37.4 13 7.5 19.6 18.5 19.6 33zm-308.8 33v-9.7c0-11.5-5.6-22-17-31.5-11-9.4-22.5-14-34-14-14 0-27 3-39 9.6 26.5-1.5 56.5 13.8 90 45.7zm-13.5-93c-7.5-8.4-14-17.2-19.5-26-21 5.3-31.5 11.6-31.5 18.6 6-.6 14.8.5 26.2 3.3 11.5 2.7 19.8 4 24.8 4zm45.7-23v-33c-12-2-19.2-3-21.7-3v11l21.7 25zm97.4-21l-33.7-15v64.3c23.5-13.5 34.7-30 33.7-49.4zm41.3 88.3l-16.5-20.2-30.4 21.3c-10.2 7.3-19 15.4-26.6 24.4 22.5-12 47-20.4 73.5-25.4z" fill="#0d0f0f"/>
  </symbol>
</svg>
